<svg width="18" height="22" viewBox="0 0 18 22" xmlns="http://www.w3.org/2000/svg">
<path d="M17.0909 6.9091H1.68183C1.30523 6.9091 1 7.21433 1 7.59093V18.9545C1 20.0825 1.91773 21 3.04546 21H15.7273C16.8552 21 17.7727 20.0825 17.7727 18.9545V7.5909C17.7727 7.21433 17.4675 6.9091 17.0909 6.9091ZM16.4091 18.9545C16.4091 19.3304 16.1032 19.6363 15.7272 19.6363H3.04546C2.66957 19.6363 2.36363 19.3304 2.36363 18.9545V8.27273H16.4091V18.9545Z"/>
<path fill-rule="evenodd" clip-rule="evenodd" d="M0.9 7.59093C0.9 7.15911 1.25001 6.8091 1.68183 6.8091H17.0909C17.5227 6.8091 17.8727 7.1591 17.8727 7.59089V18.9545C17.8727 20.1377 16.9105 21.1 15.7273 21.1H3.04546C1.86251 21.1 0.9 20.1377 0.9 18.9545V7.59093ZM1.68183 7.0091C1.36046 7.0091 1.1 7.26956 1.1 7.59093V18.9545C1.1 20.0273 1.97295 20.9 3.04546 20.9H15.7273C16.8 20.9 17.6727 20.0273 17.6727 18.9545V7.59091C17.6727 7.26957 17.4122 7.0091 17.0909 7.0091H1.68183ZM2.26363 8.17273H16.5091V18.9545C16.5091 19.3856 16.1584 19.7363 15.7272 19.7363H3.04546C2.61434 19.7363 2.26363 19.3857 2.26363 18.9545V8.17273ZM2.46363 8.37273V18.9545C2.46363 19.2752 2.72479 19.5363 3.04546 19.5363H15.7272C16.0479 19.5363 16.3091 19.2752 16.3091 18.9545V8.37273H2.46363Z"/>
<path d="M9.49997 1C7.24431 1 5.40907 2.83523 5.40907 5.09089V10.7727C5.40907 11.1493 5.71431 11.4546 6.09091 11.4546C6.46751 11.4546 6.77274 11.1493 6.77274 10.7727V5.09089C6.77274 3.58703 7.99614 2.36363 9.5 2.36363C11.0039 2.36363 12.2273 3.58703 12.2273 5.09089V10.7727C12.2273 11.1493 12.5325 11.4546 12.9091 11.4546C13.2857 11.4546 13.5909 11.1493 13.5909 10.7727V5.09089C13.5909 2.83523 11.7557 1 9.49997 1Z"/>
<path fill-rule="evenodd" clip-rule="evenodd" d="M5.30907 5.09089C5.30907 2.78 7.18908 0.900002 9.49996 0.900002C11.8109 0.900002 13.6909 2.78 13.6909 5.09089V10.7727C13.6909 11.2045 13.3409 11.5546 12.9091 11.5546C12.4773 11.5546 12.1273 11.2045 12.1273 10.7727V5.09089C12.1273 3.64226 10.9486 2.46363 9.5 2.46363C8.05137 2.46363 6.87274 3.64226 6.87274 5.09089V10.7727C6.87274 11.2045 6.52274 11.5546 6.09091 11.5546C5.65908 11.5546 5.30907 11.2045 5.30907 10.7727V5.09089ZM9.49996 1.1C7.29953 1.1 5.50907 2.89046 5.50907 5.09089V10.7727C5.50907 11.0941 5.76954 11.3546 6.09091 11.3546C6.41228 11.3546 6.67274 11.0941 6.67274 10.7727V5.09089C6.67274 3.5318 7.94091 2.26363 9.5 2.26363C11.0591 2.26363 12.3273 3.5318 12.3273 5.09089V10.7727C12.3273 11.0941 12.5877 11.3546 12.9091 11.3546C13.2305 11.3546 13.4909 11.0941 13.4909 10.7727V5.0909C13.4909 2.89046 11.7004 1.1 9.49996 1.1Z"/>
</svg>
