<svg width="26" height="26" viewBox="0 0 26 26" xmlns="http://www.w3.org/2000/svg">
<path fill-rule="evenodd" clip-rule="evenodd" d="M13 0C5.8203 0 0 5.8203 0 13C0 20.1797 5.8203 26 13 26C20.1797 26 26 20.1797 26 13C26 5.8203 20.1797 0 13 0ZM10.1418 6.10856C10.8813 6.0749 11.1177 6.06667 13.0006 6.06667H12.9985C14.8821 6.06667 15.1175 6.0749 15.8571 6.10856C16.5952 6.14236 17.0993 6.25921 17.5413 6.43067C17.9978 6.60762 18.3834 6.84451 18.7691 7.23018C19.1548 7.61556 19.3917 8.00239 19.5693 8.4584C19.7398 8.89925 19.8568 9.40308 19.8914 10.1412C19.9247 10.8808 19.9333 11.1171 19.9333 13.0001C19.9333 14.8831 19.9247 15.1188 19.8914 15.8584C19.8568 16.5962 19.7398 17.1002 19.5693 17.5412C19.3917 17.997 19.1548 18.3839 18.7691 18.7692C18.3839 19.1549 17.9976 19.3924 17.5417 19.5695C17.1006 19.7409 16.5962 19.8578 15.8581 19.8916C15.1185 19.9252 14.8829 19.9335 12.9998 19.9335C11.1169 19.9335 10.8808 19.9252 10.1412 19.8916C9.40322 19.8578 8.89925 19.7409 8.45811 19.5695C8.00239 19.3924 7.61556 19.1549 7.23032 18.7692C6.8448 18.3839 6.60791 17.997 6.43067 17.541C6.25936 17.1002 6.1425 16.5963 6.10856 15.8582C6.07504 15.1187 6.06667 14.8831 6.06667 13.0001C6.06667 11.1171 6.07533 10.8806 6.10841 10.1411C6.14163 9.40322 6.25864 8.89925 6.43053 8.45826C6.60819 8.00239 6.84509 7.61556 7.23076 7.23018C7.61614 6.84465 8.00296 6.60776 8.45898 6.43067C8.89983 6.25921 9.40366 6.14236 10.1418 6.10856Z"/>
<path fill-rule="evenodd" clip-rule="evenodd" d="M12.3787 7.31614C12.4994 7.31595 12.6294 7.31601 12.7696 7.31607L13.0007 7.31614C14.8519 7.31614 15.0713 7.32278 15.8023 7.356C16.4783 7.38692 16.8452 7.49987 17.0896 7.59477C17.4132 7.72044 17.6439 7.87067 17.8864 8.11333C18.1291 8.356 18.2793 8.58712 18.4052 8.91068C18.5001 9.15479 18.6132 9.52168 18.644 10.1977C18.6772 10.9286 18.6845 11.1481 18.6845 12.9985C18.6845 14.8488 18.6772 15.0684 18.644 15.7993C18.6131 16.4753 18.5001 16.8422 18.4052 17.0863C18.2796 17.4099 18.1291 17.6403 17.8864 17.8828C17.6437 18.1255 17.4133 18.2757 17.0896 18.4014C16.8455 18.4967 16.4783 18.6094 15.8023 18.6403C15.0714 18.6735 14.8519 18.6807 13.0007 18.6807C11.1493 18.6807 10.9299 18.6735 10.199 18.6403C9.52297 18.6091 9.15608 18.4961 8.91153 18.4012C8.58797 18.2755 8.35686 18.1253 8.11419 17.8826C7.87152 17.64 7.7213 17.4094 7.59534 17.0857C7.50044 16.8416 7.38734 16.4747 7.35657 15.7987C7.32335 15.0678 7.31671 14.8483 7.31671 12.9968C7.31671 11.1453 7.32335 10.9269 7.35657 10.196C7.38748 9.51995 7.50044 9.15306 7.59534 8.90865C7.72101 8.5851 7.87152 8.35398 8.11419 8.11131C8.35686 7.86864 8.58797 7.71842 8.91153 7.59246C9.15594 7.49713 9.52297 7.38446 10.199 7.3534C10.8386 7.32452 11.0865 7.31585 12.3787 7.3144V7.31614ZM16.7016 8.46739C16.2423 8.46739 15.8696 8.83962 15.8696 9.29911C15.8696 9.75844 16.2423 10.1311 16.7016 10.1311C17.161 10.1311 17.5337 9.75844 17.5337 9.29911C17.5337 8.83977 17.161 8.46739 16.7016 8.46739ZM9.44006 13.0001C9.44006 11.0338 11.0342 9.43958 13.0005 9.43951C14.9668 9.43951 16.5607 11.0338 16.5607 13.0001C16.5607 14.9664 14.967 16.56 13.0006 16.56C11.0343 16.56 9.44006 14.9664 9.44006 13.0001Z"/>
<path fill-rule="evenodd" clip-rule="evenodd" d="M13.0007 10.6889C14.277 10.6889 15.3118 11.7236 15.3118 13.0001C15.3118 14.2764 14.277 15.3112 13.0007 15.3112C11.7242 15.3112 10.6895 14.2764 10.6895 13.0001C10.6895 11.7236 11.7242 10.6889 13.0007 10.6889Z"/>
</svg>
