<svg width="24" height="24" viewBox="0 0 24 24" xmlns="http://www.w3.org/2000/svg">
<path fill-rule="evenodd" clip-rule="evenodd" d="M12 0C18.6274 0 24 5.37258 24 12C24 18.6274 18.6274 24 12 24C5.37258 24 0 18.6274 0 12C0 5.37258 5.37258 0 12 0ZM12.7187 4.88796C13.5346 4.98979 14.194 5.18636 14.9175 5.53924C15.629 5.8874 16.0844 6.21659 16.6869 6.81577C17.2514 7.38181 17.5645 7.81049 17.8966 8.47598C18.3591 9.40439 18.6224 10.508 18.6674 11.723C18.6841 12.1374 18.6722 12.2298 18.5773 12.3482C18.3971 12.578 18.0009 12.54 17.8658 12.2819C17.823 12.1966 17.8112 12.1233 17.797 11.7917C17.7732 11.2825 17.7377 10.9533 17.6665 10.5601C17.3866 9.01835 16.6466 7.7868 15.4653 6.9034C14.481 6.16449 13.4634 5.80449 12.1304 5.72634C11.6798 5.70029 11.6015 5.68373 11.4995 5.60556C11.3097 5.45635 11.3003 5.10585 11.4829 4.94244C11.5944 4.84058 11.6726 4.82638 12.0593 4.83822C12.2609 4.84532 12.5574 4.86901 12.7187 4.88796ZM7.29635 5.14397C7.37939 5.17237 7.50747 5.23868 7.58101 5.28605C8.03164 5.58448 9.28641 7.18782 9.69677 7.98834C9.93157 8.44541 10.0098 8.78409 9.93634 9.03514C9.86039 9.30513 9.73472 9.44724 9.17256 9.8996C8.94722 10.0819 8.73611 10.269 8.70293 10.3188C8.61753 10.4419 8.54872 10.6835 8.54872 10.854C8.55113 11.2495 8.80728 11.9671 9.14411 12.519C9.40499 12.9476 9.87225 13.4971 10.3348 13.9187C10.878 14.416 11.3571 14.7547 11.8979 15.0223C12.5929 15.3681 13.0175 15.4557 13.3282 15.3113C13.4065 15.2757 13.4895 15.2284 13.5156 15.2071C13.5393 15.1857 13.7219 14.9631 13.9212 14.7168C14.3054 14.2336 14.3932 14.1555 14.6565 14.0655C14.9909 13.9518 15.3325 13.9826 15.6764 14.1579C15.9373 14.2929 16.5066 14.6458 16.8742 14.9015C17.3581 15.2402 18.3922 16.0833 18.5322 16.2515C18.7789 16.5547 18.8216 16.943 18.6555 17.3717C18.48 17.824 17.7969 18.6719 17.3201 19.0343C16.8884 19.3611 16.5825 19.4866 16.1792 19.5056C15.8472 19.5222 15.7096 19.4937 15.285 19.3185C11.9548 17.9472 9.2959 15.901 7.18486 13.0897C6.08194 11.6214 5.24226 10.0985 4.66823 8.51885C4.33381 7.59758 4.31722 7.19732 4.59233 6.72602C4.71095 6.52709 5.21617 6.03446 5.58381 5.75975C6.19579 5.30501 6.47803 5.13685 6.70337 5.0895C6.85754 5.05633 7.12555 5.08238 7.29635 5.14397ZM12.8821 6.60507C14.3219 6.81584 15.4367 7.48373 16.1672 8.56842C16.5776 9.17945 16.8337 9.89706 16.9215 10.6668C16.9523 10.9486 16.9523 11.4625 16.9192 11.5478C16.8883 11.6283 16.7887 11.7373 16.7033 11.7822C16.6108 11.8296 16.4139 11.8249 16.3048 11.768C16.1221 11.6757 16.0676 11.5288 16.0676 11.131C16.0676 10.5176 15.9087 9.87101 15.6336 9.36891C15.3205 8.79577 14.8651 8.32211 14.31 7.9929C13.8333 7.7087 13.1288 7.49793 12.486 7.44583C12.2535 7.42687 12.1255 7.37951 12.0377 7.27767C11.9025 7.12372 11.8883 6.91531 12.0021 6.74243C12.1255 6.55059 12.3152 6.5198 12.8821 6.60507ZM13.3878 8.3931C13.855 8.49257 14.2132 8.67019 14.5192 8.95677C14.9129 9.32857 15.1288 9.77857 15.2237 10.4251C15.2877 10.8467 15.2616 11.0125 15.1122 11.1498C14.9722 11.2777 14.7137 11.2825 14.5572 11.1617C14.4433 11.0764 14.4077 10.9864 14.3816 10.7425C14.3508 10.418 14.2939 10.1907 14.1966 9.97988C13.9879 9.53227 13.6203 9.30017 12.9988 9.22438C12.707 9.18885 12.6193 9.15569 12.5244 9.0444C12.3513 8.83835 12.4177 8.50441 12.6572 8.38125C12.7474 8.33626 12.7853 8.33152 12.9846 8.34336C13.1079 8.35046 13.2906 8.37177 13.3878 8.3931Z"/>
</svg>
