<svg width="37" height="37" viewBox="0 0 37 37" fill="none" xmlns="http://www.w3.org/2000/svg">
<path d="M36.0255 19.6716C35.6936 19.1092 35.1546 18.6993 34.5239 18.5299C33.8933 18.3604 33.2214 18.4448 32.6524 18.7651L26.4611 22.3417C26.3652 21.81 26.0938 21.3258 25.6902 20.9665C25.2345 20.5678 24.6493 20.3486 24.0437 20.3499H18.3951C18.3135 20.3495 18.2328 20.333 18.1576 20.3013C18.0825 20.2695 18.0144 20.2232 17.9573 20.1649L17.8093 20.0169C17.2303 19.4422 16.4482 19.1187 15.6324 19.1166H13.1473C12.4174 19.1146 11.6944 19.2575 11.0201 19.537C10.3458 19.8164 9.73367 20.2269 9.21913 20.7445L6.78947 23.1804L6.60447 22.9954C6.48688 22.8818 6.33013 22.8178 6.16664 22.8165C6.08505 22.8169 6.00434 22.8334 5.92918 22.8652C5.85403 22.8969 5.78592 22.9433 5.72881 23.0015L4.32282 24.4137L4.13782 24.2287C4.07639 24.168 4.00299 24.1207 3.9223 24.09C3.84162 24.0592 3.7554 24.0455 3.66915 24.0499C3.58358 24.053 3.49968 24.0744 3.42309 24.1127C3.3465 24.151 3.27901 24.2053 3.22515 24.2719L0.141834 27.9718C0.0499009 28.0828 -0.000280337 28.2224 1.17805e-06 28.3665V36.3831C1.17805e-06 36.5467 0.0649709 36.7035 0.180618 36.8192C0.296265 36.9348 0.453116 36.9998 0.616665 36.9998H10.4833C10.6468 36.9986 10.8035 36.9346 10.9211 36.821L13.3878 34.3543C13.5033 34.2379 13.5681 34.0805 13.5681 33.9165C13.5681 33.7525 13.5033 33.5951 13.3878 33.4787L13.2028 33.2937L14.6149 31.8877C14.6731 31.8307 14.7195 31.7629 14.7513 31.6879C14.7832 31.613 14.7999 31.5325 14.8004 31.4511C14.801 31.3697 14.7855 31.289 14.7547 31.2136C14.7239 31.1383 14.6785 31.0697 14.6211 31.012L14.4423 30.8393L15.7496 29.5258C15.9203 29.3528 16.1239 29.2156 16.3484 29.1224C16.573 29.0292 16.8138 28.9819 17.0569 28.9832H24.0067C24.5484 28.9861 25.0808 28.8434 25.5484 28.57L35.119 23.0447C35.6848 22.716 36.0976 22.1769 36.2675 21.545C36.4373 20.913 36.3503 20.2396 36.0255 19.6716ZM10.2305 35.7665H1.23333V28.5885L3.74315 25.5792L12.0804 33.9165L10.2305 35.7665ZM12.3271 32.4242L5.19231 25.2894L6.16664 24.3089L13.1349 31.2772H13.1411L13.3076 31.4498L12.3271 32.4242ZM34.5023 21.9717L24.9256 27.5032C24.6467 27.6657 24.3295 27.7508 24.0067 27.7498H17.0569C16.651 27.7481 16.2489 27.8273 15.874 27.983C15.4992 28.1386 15.1592 28.3676 14.8739 28.6563L13.5728 29.9637L7.65897 24.056L10.0948 21.614C10.4945 21.2116 10.9701 20.8926 11.4942 20.6756C12.0182 20.4586 12.5801 20.3479 13.1473 20.3499H15.6324C15.8744 20.35 16.1139 20.3981 16.3372 20.4912C16.5606 20.5843 16.7632 20.7207 16.9336 20.8925L17.0816 21.0405C17.254 21.2131 17.4587 21.3499 17.6842 21.443C17.9096 21.5362 18.1512 21.5838 18.3951 21.5832H24.0437C24.3476 21.5818 24.6414 21.6914 24.8701 21.8915C25.1048 22.0931 25.251 22.3788 25.2771 22.687C25.3 22.8779 25.2724 23.0714 25.1969 23.2482C25.139 23.4134 25.0441 23.5632 24.9194 23.686C24.8057 23.8012 24.6704 23.8926 24.5211 23.9551C24.3719 24.0175 24.2117 24.0498 24.0499 24.0499H19.9922C19.8287 24.0499 19.6718 24.1148 19.5562 24.2305C19.4406 24.3461 19.3756 24.503 19.3756 24.6665C19.3756 24.8301 19.4406 24.9869 19.5562 25.1026C19.6718 25.2182 19.8287 25.2832 19.9922 25.2832H24.0499C24.3739 25.2834 24.6948 25.2199 24.9943 25.0961C25.2937 24.9723 25.5658 24.7907 25.7951 24.5617C25.9933 24.3603 26.1559 24.1268 26.2761 23.871L33.269 19.838C33.4475 19.7355 33.649 19.6795 33.8548 19.6752C34.0606 19.6709 34.2642 19.7184 34.4468 19.8134C34.6606 19.9153 34.8373 20.0813 34.9525 20.2882C35.0626 20.475 35.1202 20.6881 35.119 20.9049C35.1207 21.1215 35.0644 21.3347 34.956 21.5223C34.8476 21.7099 34.6909 21.865 34.5023 21.9717Z" fill="#FF1818"/>
<path d="M31.4495 2.93971e-06C30.3032 0.00113974 29.1855 0.357539 28.2501 1.02014C27.3147 1.68275 26.6077 2.61899 26.2264 3.69999H12.9496C12.4594 3.70145 11.9897 3.89683 11.6431 4.24345C11.2965 4.59008 11.1011 5.05978 11.0996 5.54998V16.6499C11.1011 17.1401 11.2965 17.6098 11.6431 17.9565C11.9897 18.3031 12.4594 18.4985 12.9496 18.4999H31.4495C31.9397 18.4985 32.4094 18.3031 32.756 17.9565C33.1027 17.6098 33.298 17.1401 33.2995 16.6499V10.7731C34.5337 10.3378 35.5742 9.47988 36.2367 8.35122C36.8992 7.22257 37.1412 5.89592 36.9197 4.60606C36.6982 3.31619 36.0275 2.14625 35.0264 1.30328C34.0253 0.460314 32.7583 -0.00134415 31.4495 2.93971e-06ZM12.3329 5.54998C12.3329 5.38643 12.3979 5.22958 12.5136 5.11393C12.6292 4.99828 12.7861 4.93331 12.9496 4.93331H25.9365C25.9117 5.13793 25.8994 5.34386 25.8995 5.54998C25.9002 6.18095 26.0108 6.80698 26.2264 7.39997H12.3329V5.54998ZM12.3329 8.6333H26.8369C27.1503 9.09961 27.5329 9.51548 27.9715 9.86662H12.3329V8.6333ZM32.0662 16.6499C32.0662 16.8135 32.0012 16.9703 31.8856 17.086C31.7699 17.2016 31.6131 17.2666 31.4495 17.2666H12.9496C12.7861 17.2666 12.6292 17.2016 12.5136 17.086C12.3979 16.9703 12.3329 16.8135 12.3329 16.6499V11.1H31.4495C31.6556 11.1001 31.8616 11.0877 32.0662 11.063V16.6499ZM31.4495 9.86662C30.5958 9.86662 29.7612 9.61346 29.0513 9.13914C28.3414 8.66482 27.7882 7.99065 27.4615 7.20189C27.1347 6.41312 27.0493 5.54519 27.2158 4.70784C27.3824 3.87049 27.7935 3.10134 28.3972 2.49765C29.0009 1.89395 29.77 1.48283 30.6074 1.31627C31.4447 1.14972 32.3127 1.2352 33.1014 1.56192C33.8902 1.88863 34.5644 2.44191 35.0387 3.15178C35.513 3.86165 35.7662 4.69623 35.7662 5.54998C35.7649 6.69442 35.3097 7.79162 34.5004 8.60087C33.6912 9.41011 32.594 9.86532 31.4495 9.86662Z" fill="#FF1818"/>
<path d="M29.5995 4.93321C30.2807 4.93321 30.8329 4.38103 30.8329 3.69988C30.8329 3.01873 30.2807 2.46655 29.5995 2.46655C28.9184 2.46655 28.3662 3.01873 28.3662 3.69988C28.3662 4.38103 28.9184 4.93321 29.5995 4.93321Z" fill="#FF1818"/>
<path d="M33.2997 8.63316C33.9809 8.63316 34.5331 8.08098 34.5331 7.39983C34.5331 6.71868 33.9809 6.1665 33.2997 6.1665C32.6186 6.1665 32.0664 6.71868 32.0664 7.39983C32.0664 8.08098 32.6186 8.63316 33.2997 8.63316Z" fill="#FF1818"/>
<path d="M28.5468 8.45252C28.6624 8.56813 28.8192 8.63307 28.9827 8.63307C29.1463 8.63307 29.3031 8.56813 29.4187 8.45252L34.352 3.51921C34.4109 3.46232 34.4579 3.39428 34.4902 3.31904C34.5226 3.24381 34.5396 3.16289 34.5403 3.08101C34.541 2.99913 34.5254 2.91792 34.4944 2.84214C34.4634 2.76635 34.4176 2.6975 34.3597 2.6396C34.3018 2.5817 34.2329 2.53591 34.1571 2.50491C34.0814 2.4739 34.0002 2.4583 33.9183 2.45901C33.8364 2.45972 33.7555 2.47673 33.6802 2.50905C33.605 2.54137 33.537 2.58835 33.4801 2.64724L28.5468 7.58056C28.4312 7.6962 28.3662 7.85302 28.3662 8.01654C28.3662 8.18005 28.4312 8.33688 28.5468 8.45252Z" fill="#FF1818"/>
<path d="M21.5831 13.5667H15.4165C15.2529 13.5667 15.0961 13.6316 14.9804 13.7473C14.8648 13.8629 14.7998 14.0198 14.7998 14.1833C14.7998 14.3469 14.8648 14.5037 14.9804 14.6194C15.0961 14.735 15.2529 14.8 15.4165 14.8H21.5831C21.7467 14.8 21.9035 14.735 22.0192 14.6194C22.1348 14.5037 22.1998 14.3469 22.1998 14.1833C22.1998 14.0198 22.1348 13.8629 22.0192 13.7473C21.9035 13.6316 21.7467 13.5667 21.5831 13.5667Z" fill="#FF1818"/>
<path d="M28.9836 14.8H25.2837C25.1201 14.8 24.9633 14.735 24.8476 14.6194C24.732 14.5037 24.667 14.3469 24.667 14.1833C24.667 14.0198 24.732 13.8629 24.8476 13.7473C24.9633 13.6316 25.1201 13.5667 25.2837 13.5667H28.9836C29.1472 13.5667 29.304 13.6316 29.4197 13.7473C29.5353 13.8629 29.6003 14.0198 29.6003 14.1833C29.6003 14.3469 29.5353 14.5037 29.4197 14.6194C29.304 14.735 29.1472 14.8 28.9836 14.8Z" fill="#FF1818"/>
</svg>
