<svg width="14" height="17" viewBox="0 0 14 17" xmlns="http://www.w3.org/2000/svg">
<path d="M11.9571 2.82294C10.7176 1.02905 8.75321 0 6.56798 0C4.38274 0 2.41835 1.02905 1.17886 2.82294C-0.0545378 4.60776 -0.339334 6.86739 0.415514 8.86375C0.617417 9.40893 0.938364 9.93859 1.36716 10.4349L6.13579 16.0362C6.24364 16.1629 6.40165 16.236 6.56798 16.236C6.7343 16.236 6.89232 16.163 7.00017 16.0362L11.7675 10.4365C12.1982 9.93726 12.5187 9.40816 12.7189 8.86737C13.4753 6.86739 13.1905 4.60776 11.9571 2.82294ZM11.6558 8.46977C11.5014 8.88703 11.2494 9.29955 10.9071 9.69635L10.9044 9.6994L6.56798 14.7927L2.2289 9.69619C1.88678 9.29974 1.6347 8.88725 1.47878 8.466C0.85452 6.81497 1.09143 4.94669 2.11272 3.46861C3.1372 1.9858 4.76118 1.13538 6.56798 1.13538C8.37474 1.13538 9.99853 1.98577 11.023 3.46861C12.0445 4.94669 12.2816 6.81497 11.6558 8.46977Z"/>
<path d="M6.56762 3.36844C4.81476 3.36844 3.38853 4.79449 3.38853 6.54753C3.38853 8.30058 4.81457 9.72662 6.56762 9.72662C8.32066 9.72662 9.7467 8.30058 9.7467 6.54753C9.7467 4.79468 8.32047 3.36844 6.56762 3.36844ZM6.56762 8.59121C5.44074 8.59121 4.52391 7.67438 4.52391 6.5475C4.52391 5.42062 5.44074 4.50379 6.56762 4.50379C7.6945 4.50379 8.61132 5.42062 8.61132 6.5475C8.61132 7.67438 7.6945 8.59121 6.56762 8.59121Z"/>
</svg>
