<svg width="22" height="22" viewBox="0 0 22 22" xmlns="http://www.w3.org/2000/svg">
<path d="M21.1538 2.53846H10.8798C10.5014 1.08287 9.18775 0 7.61538 0C6.04302 0 4.72937 1.08287 4.35092 2.53846H0.846154C0.378865 2.53846 0 2.91733 0 3.38462C0 3.8519 0.378865 4.23077 0.846154 4.23077H4.35092C4.72937 5.68637 6.04302 6.76923 7.61538 6.76923C9.18775 6.76923 10.5014 5.68637 10.8798 4.23077H21.1538C21.6211 4.23077 22 3.8519 22 3.38462C22 2.91733 21.6211 2.53846 21.1538 2.53846ZM7.61538 5.07692C6.68208 5.07692 5.92308 4.31792 5.92308 3.38462C5.92308 2.45131 6.68208 1.69231 7.61538 1.69231C8.54869 1.69231 9.30769 2.45131 9.30769 3.38462C9.30769 4.31792 8.54869 5.07692 7.61538 5.07692ZM21.1538 10.1538H17.6491C17.2706 8.69825 15.957 7.61538 14.3846 7.61538C12.8123 7.61538 11.4986 8.69825 11.1202 10.1538H0.846154C0.378865 10.1538 0 10.5327 0 11C0 11.4673 0.378865 11.8462 0.846154 11.8462H11.1202C11.4986 13.3018 12.8123 14.3846 14.3846 14.3846C15.957 14.3846 17.2706 13.3018 17.6491 11.8462H21.1538C21.6211 11.8462 22 11.4673 22 11C22 10.5327 21.6211 10.1538 21.1538 10.1538ZM14.3846 12.6923C13.4513 12.6923 12.6923 11.9333 12.6923 11C12.6923 10.0667 13.4513 9.30769 14.3846 9.30769C15.3179 9.30769 16.0769 10.0667 16.0769 11C16.0769 11.9333 15.3179 12.6923 14.3846 12.6923ZM21.1538 17.7692H10.8798C10.5014 16.3136 9.18775 15.2308 7.61538 15.2308C6.04302 15.2308 4.72937 16.3136 4.35092 17.7692H0.846154C0.378865 17.7692 0 18.1481 0 18.6154C0 19.0827 0.378865 19.4615 0.846154 19.4615H4.35092C4.72937 20.9171 6.04302 22 7.61538 22C9.18775 22 10.5014 20.9171 10.8798 19.4615H21.1538C21.6211 19.4615 22 19.0827 22 18.6154C22 18.1481 21.6211 17.7692 21.1538 17.7692ZM7.61538 20.3077C6.68208 20.3077 5.92308 19.5487 5.92308 18.6154C5.92308 17.6821 6.68208 16.9231 7.61538 16.9231C8.54869 16.9231 9.30769 17.6821 9.30769 18.6154C9.30769 19.5487 8.54869 20.3077 7.61538 20.3077Z"/>
</svg>
