<svg width="24" height="24" viewBox="0 0 24 24" xmlns="http://www.w3.org/2000/svg">
<path fill-rule="evenodd" clip-rule="evenodd" d="M12 24C18.6274 24 24 18.6274 24 12C24 5.37258 18.6274 0 12 0C5.37258 0 0 5.37258 0 12C0 18.6274 5.37258 24 12 24ZM9.7998 17.5C10.0917 17.5 10.225 17.3702 10.3862 17.2132L11.8412 15.7984L14.8401 18.014C15.392 18.3185 15.7903 18.1609 15.9277 17.5017L17.8962 8.22539C18.0978 7.41737 17.5882 7.05089 17.0603 7.29057L5.50128 11.7477C4.71227 12.0641 4.71687 12.5043 5.35746 12.7005L8.32376 13.6263L15.1911 9.2938C15.5152 9.09721 15.8128 9.2029 15.5686 9.41964L10.0043 14.4409L9.7998 17.5Z"/>
</svg>
