<svg width="24" height="24" viewBox="0 0 24 24" xmlns="http://www.w3.org/2000/svg">
<path fill-rule="evenodd" clip-rule="evenodd" d="M0 12C0 5.37258 5.37258 0 12 0C18.6274 0 24 5.37258 24 12C24 18.6274 18.6274 24 12 24C5.37258 24 0 18.6274 0 12ZM11.9918 12.1927C13.7613 12.1927 15.1997 10.804 15.1997 9.09679C15.1997 7.38905 13.7613 6 11.9918 6C10.2226 6 8.78379 7.38905 8.78379 9.09679C8.78379 10.804 10.2226 12.1927 11.9918 12.1927ZM15.1608 13.9756C14.5807 14.3273 13.951 14.5767 13.298 14.7203L15.0913 16.4516C15.4587 16.8055 15.4587 17.3802 15.0913 17.7345C14.7243 18.0887 14.1295 18.0887 13.7629 17.7345L11.9997 16.0332L10.238 17.7345C10.0543 17.9114 9.81362 18 9.57292 18C9.33261 18 9.09229 17.9114 8.9086 17.7345C8.54161 17.3802 8.54161 16.8058 8.90822 16.4516L10.7017 14.7203C10.0488 14.5767 9.41898 14.3269 8.83893 13.9756C8.39995 13.7085 8.26809 13.1487 8.54468 12.7246C8.8205 12.3 9.40056 12.1721 9.8403 12.4393C11.1536 13.2367 12.8454 13.2369 14.1594 12.4393C14.5992 12.1721 15.179 12.3 15.4554 12.7246C15.732 13.1484 15.5998 13.7085 15.1608 13.9756Z"/>
<path fill-rule="evenodd" clip-rule="evenodd" d="M11.9917 7.81494C12.7242 7.81494 13.32 8.38987 13.32 9.0969C13.32 9.80338 12.7242 10.3787 11.9917 10.3787C11.2598 10.3787 10.6635 9.80338 10.6635 9.0969C10.6635 8.38987 11.2598 7.81494 11.9917 7.81494Z"/>
</svg>
