<svg width="18" height="18" viewBox="0 0 18 18" xmlns="http://www.w3.org/2000/svg">
<path d="M13.9241 7.16144H12.6938C12.6933 6.67212 12.4987 6.20299 12.1527 5.85699C11.8067 5.511 11.3376 5.3164 10.8482 5.31591V4.08556C11.6637 4.08654 12.4455 4.41092 13.0221 4.98754C13.5988 5.56417 13.9231 6.34596 13.9241 7.16144Z"/>
<path d="M16.3848 7.16146H15.1545C15.1532 6.01978 14.6991 4.92523 13.8918 4.11794C13.0845 3.31065 11.9899 2.85654 10.8482 2.85524V1.62489C12.3161 1.62651 13.7234 2.21035 14.7614 3.24831C15.7993 4.28626 16.3832 5.69357 16.3848 7.16146Z"/>
<path d="M15.1544 17.0041H15.0499C2.96169 16.3089 1.24535 6.10932 1.00543 2.99654C0.967931 2.50855 1.12581 2.02565 1.44433 1.65406C1.76286 1.28246 2.21594 1.05261 2.70393 1.01506C2.75273 1.01137 2.80174 1.00952 2.85095 1.00952H6.09292C6.33934 1.00928 6.58014 1.08304 6.78415 1.22124C6.98816 1.35944 7.14598 1.55572 7.23715 1.78464L8.17221 4.0854C8.26224 4.30904 8.28459 4.55421 8.23646 4.79044C8.18834 5.02668 8.07188 5.24357 7.90154 5.41417L6.59121 6.7368C6.79506 7.90029 7.35181 8.97295 8.18595 9.8093C9.0201 10.6456 10.0913 11.2052 11.2542 11.4121L12.5892 10.0895C12.7623 9.92104 12.9813 9.80729 13.2187 9.76243C13.4561 9.71758 13.7014 9.74361 13.9241 9.83728L16.2433 10.7662C16.4688 10.8602 16.6611 11.0193 16.7959 11.2231C16.9307 11.4268 17.0017 11.6661 17 11.9104V15.1585C17 15.648 16.8055 16.1174 16.4594 16.4635C16.1133 16.8096 15.6439 17.0041 15.1544 17.0041ZM2.85095 2.23987C2.77017 2.23963 2.69012 2.2553 2.61539 2.28599C2.54067 2.31668 2.47271 2.36179 2.41542 2.41875C2.35812 2.4757 2.3126 2.54338 2.28147 2.61792C2.25033 2.69247 2.23417 2.77241 2.23393 2.8532C2.23393 2.87043 2.23455 2.88745 2.23578 2.90426C2.51876 6.54609 4.33352 15.1585 15.1175 15.7737C15.2804 15.7835 15.4404 15.7282 15.5624 15.62C15.6845 15.5117 15.7586 15.3595 15.7684 15.1967L15.7696 15.1585V11.9104L13.4504 10.9815L11.6849 12.7347L11.3896 12.6978C6.03756 12.0273 5.31165 6.67528 5.31165 6.61992L5.27474 6.32463L7.02184 4.55908L6.09907 2.23987H2.85095Z"/>
<path d="M13.9241 7.16144H12.6938C12.6933 6.67212 12.4987 6.20299 12.1527 5.85699C11.8067 5.511 11.3376 5.3164 10.8482 5.31591V4.08556C11.6637 4.08654 12.4455 4.41092 13.0221 4.98754C13.5988 5.56417 13.9231 6.34596 13.9241 7.16144Z" stroke="white" stroke-width="0.1"/>
<path d="M16.3848 7.16146H15.1545C15.1532 6.01978 14.6991 4.92523 13.8918 4.11794C13.0845 3.31065 11.9899 2.85654 10.8482 2.85524V1.62489C12.3161 1.62651 13.7234 2.21035 14.7614 3.24831C15.7993 4.28626 16.3832 5.69357 16.3848 7.16146Z" stroke="white" stroke-width="0.1"/>
<path d="M15.1544 17.0041H15.0499C2.96169 16.3089 1.24535 6.10932 1.00543 2.99654C0.967931 2.50855 1.12581 2.02565 1.44433 1.65406C1.76286 1.28246 2.21594 1.05261 2.70393 1.01506C2.75273 1.01137 2.80174 1.00952 2.85095 1.00952H6.09292C6.33934 1.00928 6.58014 1.08304 6.78415 1.22124C6.98816 1.35944 7.14598 1.55572 7.23715 1.78464L8.17221 4.0854C8.26224 4.30904 8.28459 4.55421 8.23646 4.79044C8.18834 5.02668 8.07188 5.24357 7.90154 5.41417L6.59121 6.7368C6.79506 7.90029 7.35181 8.97295 8.18595 9.8093C9.0201 10.6456 10.0913 11.2052 11.2542 11.4121L12.5892 10.0895C12.7623 9.92104 12.9813 9.80729 13.2187 9.76243C13.4561 9.71758 13.7014 9.74361 13.9241 9.83728L16.2433 10.7662C16.4688 10.8602 16.6611 11.0193 16.7959 11.2231C16.9307 11.4268 17.0017 11.6661 17 11.9104V15.1585C17 15.648 16.8055 16.1174 16.4594 16.4635C16.1133 16.8096 15.6439 17.0041 15.1544 17.0041ZM2.85095 2.23987C2.77017 2.23963 2.69012 2.2553 2.61539 2.28599C2.54067 2.31668 2.47271 2.36179 2.41542 2.41875C2.35812 2.4757 2.3126 2.54338 2.28147 2.61792C2.25033 2.69247 2.23417 2.77241 2.23393 2.8532C2.23393 2.87043 2.23455 2.88745 2.23578 2.90426C2.51876 6.54609 4.33352 15.1585 15.1175 15.7737C15.2804 15.7835 15.4404 15.7282 15.5624 15.62C15.6845 15.5117 15.7586 15.3595 15.7684 15.1967L15.7696 15.1585V11.9104L13.4504 10.9815L11.6849 12.7347L11.3896 12.6978C6.03756 12.0273 5.31165 6.67528 5.31165 6.61992L5.27474 6.32463L7.02184 4.55908L6.09907 2.23987H2.85095Z" stroke="white" stroke-width="0.1"/>
</svg>
